<svg xmlns="http://www.w3.org/2000/svg" viewBox="0 0 500 400" fill="none">
  <rect width="500" height="400" fill="#F9FAFB"/>
  
  <circle cx="250" cy="200" r="120" fill="#E5E7EB" opacity="0.5"/>
  <circle cx="250" cy="200" r="90" fill="#0545B3" opacity="0.1"/>
  
  <rect x="150" y="140" width="200" height="120" rx="8" fill="#FFFFFF" stroke="#E5E7EB" stroke-width="2"/>
  
  <rect x="170" y="160" width="160" height="8" rx="4" fill="#0545B3"/>
  <rect x="170" y="180" width="120" height="6" rx="3" fill="#E5E7EB"/>
  <rect x="170" y="195" width="140" height="6" rx="3" fill="#E5E7EB"/>
  <rect x="170" y="210" width="100" height="6" rx="3" fill="#E5E7EB"/>
  
  <circle cx="250" cy="235" r="15" fill="#0545B3"/>
  <path d="M245 235 L248 238 L255 231" stroke="#FFFFFF" stroke-width="2" stroke-linecap="round" stroke-linejoin="round"/>
  
  <g transform="translate(350, 160)">
    <rect width="80" height="60" rx="4" fill="#FFFFFF" stroke="#0545B3" stroke-width="2"/>
    <circle cx="40" cy="30" r="20" fill="#0545B3" opacity="0.2"/>
    <rect x="35" y="25" width="10" height="10" fill="#0545B3"/>
  </g>
  
  <g transform="translate(70, 160)">
    <rect width="80" height="60" rx="4" fill="#FFFFFF" stroke="#0545B3" stroke-width="2"/>
    <path d="M20 30 L40 20 L60 40" stroke="#0545B3" stroke-width="2" fill="none" stroke-linecap="round" stroke-linejoin="round"/>
  </g>
  
  <g transform="translate(200, 280)">
    <rect width="100" height="40" rx="20" fill="#0545B3"/>
    <text x="50" y="25" text-anchor="middle" fill="#FFFFFF" font-family="Arial, sans-serif" font-size="14" font-weight="bold">START</text>
  </g>
</svg>